<svg width="115" height="68" viewBox="0 0 115 68" fill="none" xmlns="http://www.w3.org/2000/svg">
<path d="M25.1154 10H21.5927C21.3844 8.98674 21.0198 8.09659 20.4989 7.32955C19.9876 6.5625 19.3626 5.91856 18.6239 5.39773C17.8948 4.86742 17.0851 4.4697 16.195 4.20455C15.3048 3.93939 14.3768 3.80682 13.4109 3.80682C11.6495 3.80682 10.0539 4.25189 8.62393 5.14205C7.20348 6.0322 6.07185 7.34375 5.22905 9.0767C4.39572 10.8097 3.97905 12.9356 3.97905 15.4545C3.97905 17.9735 4.39572 20.0994 5.22905 21.8324C6.07185 23.5653 7.20348 24.8769 8.62393 25.767C10.0539 26.6572 11.6495 27.1023 13.4109 27.1023C14.3768 27.1023 15.3048 26.9697 16.195 26.7045C17.0851 26.4394 17.8948 26.0464 18.6239 25.5256C19.3626 24.9953 19.9876 24.3466 20.4989 23.5795C21.0198 22.803 21.3844 21.9129 21.5927 20.9091H25.1154C24.8503 22.3958 24.3673 23.7263 23.6665 24.9006C22.9658 26.0748 22.0946 27.0739 21.0529 27.8977C20.0112 28.7121 18.8417 29.3324 17.5444 29.7585C16.2565 30.1847 14.8787 30.3977 13.4109 30.3977C10.9298 30.3977 8.72337 29.7917 6.79155 28.5795C4.85973 27.3674 3.33984 25.6439 2.23189 23.4091C1.12393 21.1742 0.569957 18.5227 0.569957 15.4545C0.569957 12.3864 1.12393 9.73485 2.23189 7.5C3.33984 5.26515 4.85973 3.54167 6.79155 2.32955C8.72337 1.11742 10.9298 0.511363 13.4109 0.511363C14.8787 0.511363 16.2565 0.724431 17.5444 1.15057C18.8417 1.5767 20.0112 2.2017 21.0529 3.02557C22.0946 3.83996 22.9658 4.83428 23.6665 6.00852C24.3673 7.17329 24.8503 8.50379 25.1154 10ZM32.0011 30H28.3079L38.9897 0.90909H42.6261L53.3079 30H49.6147L40.9215 5.51136H40.6942L32.0011 30ZM33.3647 18.6364H48.2511V21.7614H33.3647V18.6364ZM57.8391 30V0.90909H67.6687C69.9414 0.90909 71.8069 1.29735 73.2653 2.07386C74.7236 2.84091 75.8031 3.89678 76.5039 5.24148C77.2047 6.58617 77.555 8.11553 77.555 9.82955C77.555 11.5436 77.2047 13.0634 76.5039 14.3892C75.8031 15.715 74.7283 16.7566 73.2795 17.5142C71.8306 18.2623 69.9793 18.6364 67.7255 18.6364H59.771V15.4545H67.6119C69.1649 15.4545 70.4149 15.2273 71.3619 14.7727C72.3183 14.3182 73.0096 13.6742 73.4357 12.8409C73.8713 11.9981 74.0891 10.9943 74.0891 9.82955C74.0891 8.66477 73.8713 7.64678 73.4357 6.77557C73.0001 5.90436 72.3041 5.23201 71.3477 4.75852C70.3912 4.27557 69.127 4.03409 67.555 4.03409H61.3619V30H57.8391ZM71.5323 16.9318L78.6914 30H74.6005L67.555 16.9318H71.5323ZM93.4819 24.0341V21.1364L106.266 0.90909H108.368V5.39773H106.948L97.2887 20.6818V20.9091H114.505V24.0341H93.4819ZM107.175 30V23.1534V21.804V0.90909H110.527V30H107.175ZM2.24676 68V35.2727H13.305C15.8618 35.2727 17.9605 35.7095 19.6012 36.5831C21.2418 37.446 22.4563 38.6339 23.2446 40.1467C24.033 41.6594 24.4272 43.38 24.4272 45.3082C24.4272 47.2365 24.033 48.9464 23.2446 50.4379C22.4563 51.9293 21.2471 53.1012 19.6171 53.9535C17.9872 54.7951 15.9044 55.2159 13.3689 55.2159H4.42006V51.6364H13.2411C14.9882 51.6364 16.3945 51.3807 17.4598 50.8693C18.5358 50.358 19.3135 49.6335 19.7929 48.696C20.283 47.7479 20.528 46.6186 20.528 45.3082C20.528 43.9979 20.283 42.8526 19.7929 41.8725C19.3029 40.8924 18.5198 40.136 17.4438 39.6033C16.3679 39.06 14.9456 38.7884 13.1772 38.7884H6.20983V68H2.24676ZM17.6516 53.2983L25.7056 68H21.1033L13.1772 53.2983H17.6516ZM31.0309 68V35.2727H50.7824V38.7884H34.994V49.8466H49.7596V53.3622H34.994V64.4844H51.038V68H31.0309ZM83.8772 35.2727V68H80.0419L62.2081 42.304H61.8885V68H57.9255V35.2727H61.7607L79.6584 61.0327H79.978V35.2727H83.8772ZM90.0175 38.7884V35.2727H114.563V38.7884H104.272V68H100.309V38.7884H90.0175Z" fill="#1976D2"/>
</svg>
